<svg height="512pt" viewBox="0 0 512 512" width="512pt" xmlns="http://www.w3.org/2000/svg"><path d="m0 219.675781 19.535156 22.722657 43.058594-37.019532 28.40625 306.335938h398.488281l-44.949219-89.894532h-17.214843l20.050781-216.371093 45.027344 38.921875 19.597656-22.667969-256.488281-221.703125zm246.226562 262.074219h-65.65625v-75.910156c0-41.308594 33.609376-74.914063 74.914063-74.914063 41.308594 0 74.914063 33.605469 74.914063 74.914063v15.980468h-54.207032zm33.5 0 14.984376-29.964844h131.308593l14.980469 29.964844zm117.503907-59.929688h-36.867188v-15.980468c0-57.832032-47.046875-104.882813-104.878906-104.882813-57.828125 0-104.878906 47.050781-104.878906 104.882813v75.910156h-32.289063l-27.851562-300.332031 164.992187-141.855469 164.054688 141.804688zm0 0"/><path d="m195.554688 121.164062c-24.785157 0-44.949219 20.164063-44.949219 44.949219 0 11.5 4.34375 22.007813 11.472656 29.964844-7.128906 7.957031-11.472656 18.464844-11.472656 29.964844 0 24.785156 20.164062 44.949219 44.949219 44.949219 19.535156 0 36.195312-12.523438 42.382812-29.964844h35.097656c6.183594 17.441406 22.847656 29.964844 42.382813 29.964844 24.785156 0 44.949219-20.164063 44.949219-44.949219 0-11.5-4.34375-22.007813-11.472657-29.964844 7.128907-7.957031 11.472657-18.464844 11.472657-29.964844 0-24.785156-20.164063-44.949219-44.949219-44.949219-19.535157 0-36.199219 12.527344-42.382813 29.964844h-35.097656c-6.1875-17.4375-22.847656-29.964844-42.382812-29.964844zm104.878906 59.933594v-14.984375c0-8.261719 6.722656-14.984375 14.984375-14.984375s14.980469 6.722656 14.980469 14.984375-6.71875 14.984375-14.980469 14.984375v29.964844c8.261719 0 14.980469 6.71875 14.980469 14.980469s-6.71875 14.984375-14.980469 14.984375-14.984375-6.722656-14.984375-14.984375v-14.980469h-89.894532v14.980469c0 8.261719-6.722656 14.984375-14.984374 14.984375-8.261719 0-14.984376-6.722656-14.984376-14.984375s6.722657-14.980469 14.984376-14.980469v-29.964844c-8.261719 0-14.984376-6.722656-14.984376-14.984375s6.722657-14.984375 14.984376-14.984375c8.261718 0 14.984374 6.722656 14.984374 14.984375v14.984375zm0 0"/></svg>