<?xml version="1.0" encoding="iso-8859-1"?>
<!-- Generator: Adobe Illustrator 16.0.0, SVG Export Plug-In . SVG Version: 6.00 Build 0)  -->
<!DOCTYPE svg PUBLIC "-//W3C//DTD SVG 1.1//EN" "http://www.w3.org/Graphics/SVG/1.1/DTD/svg11.dtd">
<svg version="1.1" id="Capa_1" xmlns="http://www.w3.org/2000/svg" xmlns:xlink="http://www.w3.org/1999/xlink" x="0px" y="0px"
	 width="551.613px" height="551.613px" viewBox="0 0 551.613 551.613" style="enable-background:new 0 0 551.613 551.613;"
	 xml:space="preserve">
<g>
	<g>
		<circle cx="260.157" cy="138.068" r="34.224"/>
		<circle cx="261.247" cy="30.222" r="30.222"/>
		<path d="M162.882,550.432c7.621,0,15.109-6.512,15.109-14.291c0-0.096,0-83.529,0-83.529c0.043-1.275,1.104-2.514,2.295-2.973
			c10.289-3.949,10.49-17.762,10.141-23.281c-0.082-1.275-1.104-1.768-2.2-1.104l-12.895,7.812c-1.095,0.66-3.017,1.199-4.298,1.199
			c-13.315,0-79.67,0-83.309,0c-2.639,0-3.088-3.527-3.083-5.98c0.004-1.281,0.134-3.348,0.134-4.623v-46.268
			c0-1.283-0.296-1.072-1.449-0.521c-13.512,6.406-60.607,32.234-73.598,39.387c-10.552,6.141-8.085,22.645,10.868,22.645h26.65
			c1.282,0,3.166,0.641,3.534,1.865c0,0-0.938,95.596-0.938,96.012c0,7.703,6.058,13.941,13.531,13.941s13.45-6.238,13.45-13.941
			c0-0.488-0.153-41.74-0.153-41.74c0-1.281,1.038-2.941,2.314-2.955h43.705c1.277-0.02,1.731,0.822,1.057,1.912
			c-4.279,6.914-15.429,26.703-20.55,34.604c-3.925,5.178-3.523,12.574,1.191,17.287c5.154,5.154,13.741,5.352,18.685-0.018
			c0.296-0.326,15.099-22.979,22.993-39.273c0.555-1.152,1-1.053,1,0.229c0.01,10.863,0.105,23.027,0.435,29.424
			c0,0.033-0.005,0.068-0.005,0.102C147.511,544.125,155.266,550.432,162.882,550.432z"/>
		<path d="M289.653,551.607c11.489,0,21.229-10.57,21.319-20.988l-0.02-316.921l37.136-30.705c2.559-2.113,4.566-4.819,5.848-7.879
			l30.38-72.541c4.375-10.447-0.55-22.462-10.996-26.837c-8.238-3.457-17.399-1.062-23.07,5.207
			c-1.521,1.678-2.845,3.576-3.768,5.785l-3.801,9.075l-43.337-24.46c-2.052-1.157-4.36-1.765-6.713-1.765c-0.005,0-0.005,0-0.005,0
			h-64.944c-2.434,0-4.819,0.65-6.918,1.879l-42.816,25.116l-4.121-9.845c-0.43-1.033-0.995-1.965-1.563-2.883
			c-5.221-8.401-15.854-12.059-25.274-8.109c-10.447,4.375-15.372,16.39-10.997,26.837l30.38,72.541
			c1.281,3.06,3.29,5.766,5.848,7.879l42.524,35.166c0.067,0.33,0.11,312.21,0.11,312.21c0.053,10.418,9.367,21.244,20.856,21.244
			c10.638,0,19.374-9.133,20.674-18.758c0.172-1.266,0.148-170.365,0.148-170.365c0-1.281,1.038-2.314,2.314-2.314h8.104
			c1.281,0,2.314,1.039,2.314,2.314l-0.019,168.219C269.342,541.127,278.164,551.607,289.653,551.607z M232.631,179.718
			l-30.375-25.121l-13.646-32.58l42.787-25.102h57.638l43.012,24.274l-13.989,33.407l-30.376,25.121H232.631z"/>
		<circle cx="392.645" cy="200.492" r="21.583"/>
		<path d="M547.758,298.518l-3.639-17.562l-8.458-40.817c0,0-3.958-18.699-20.76-18.699c-20.32,0-30.758,0-33.995,0
			c-3.236,0-7.258-10.084-9.944-10.084c-2.688,0-27.33,0-37.361,0c-10.03,0-13.201,2.807-13.201,2.807l-1.563,1.267l-28.229,22.864
			c0,0-1.1,0.985-2.232,2.959c-1.215,2.108-2.467,5.35-2.467,9.83c0,8.664,0,18.13,0,26.91c0,35.572,28.812,40.133,28.812,40.133
			s1.544,0,4.212,0c0.058,0.258,0.067,0.531-0.005,0.809l-20.334,78.729c-0.259,0.998,0.368,1.811,1.4,1.811h25.054
			c1.033,0,1.87,0.838,1.87,1.871v129.021c0,1.033-0.01,1.926-0.015,1.998c-0.005,0.043-0.005,0.092-0.005,0.135
			c0,10.184,8.258,18.422,18.441,18.422c10.185,0,18.04-8.268,18.04-18.451c0-1.314,0-2.605,0-3.844V400.271
			c0-1.033,0.836-1.836,1.869-1.797l6.546,0.258c1.032,0.039,1.869,0.908,1.869,1.945v129.688c0,1.033,0.005,1.926,0.015,2.004
			c0.009,0.07,0.019,0.281,0.023,0.467c0.005,0.145,0.005,0.287,0.005,0.336c0,10.184,7.654,17.752,17.839,17.752
			c10.184,0,18.714-8.266,18.714-18.451c0-1.314-0.134-2.605-0.134-3.844V401.496c0-1.033,0.837-1.898,1.869-1.938l19.092-0.678
			c1.032-0.039,1.721-0.889,1.539-1.908l-14.123-78.838c1.889,0,3.59,0,5.062,0C552.764,318.131,547.758,298.518,547.758,298.518z"
			/>
		<circle cx="470.57" cy="166.268" r="34.224"/>
	</g>
</g>
<g>
</g>
<g>
</g>
<g>
</g>
<g>
</g>
<g>
</g>
<g>
</g>
<g>
</g>
<g>
</g>
<g>
</g>
<g>
</g>
<g>
</g>
<g>
</g>
<g>
</g>
<g>
</g>
<g>
</g>
</svg>
