<?xml version="1.0" encoding="iso-8859-1"?>
<!-- Generator: Adobe Illustrator 19.0.0, SVG Export Plug-In . SVG Version: 6.00 Build 0)  -->
<svg version="1.1" id="Capa_1" xmlns="http://www.w3.org/2000/svg" xmlns:xlink="http://www.w3.org/1999/xlink" x="0px" y="0px"
	 viewBox="0 0 472.813 472.813" style="enable-background:new 0 0 472.813 472.813;" xml:space="preserve">
<g>
	<g>
		<path d="M464.821,339.202c-0.003,0-0.006,0-0.009,0c-4.416-0.003-7.997,3.575-8,7.991c0,0.003,0,0.006,0,0.009
			c0.118,19.104-10.155,36.762-26.82,46.102c-8.078-32.48-55.301-60.917-93.992-62.397v-8.22l22.063,5.508
			c4.285,1.071,8.627-1.534,9.699-5.819c0.159-0.634,0.239-1.285,0.239-1.939v-40c0.003-4.416-3.575-7.997-7.991-8
			c-0.003,0-0.006,0-0.009,0h-31.016c-1.21-0.001-2.405,0.274-3.492,0.805l-14.836,7.195h-29.312l-14.836-7.195
			c-1.088-0.531-2.282-0.806-3.492-0.805H232c-4.416-0.003-7.997,3.575-8,7.991c0,0.003,0,0.006,0,0.009v40
			c0,4.417,3.582,7.997,7.999,7.997c0.654,0,1.305-0.08,1.939-0.239L256,322.686v125.75c0.001,2.691,1.354,5.201,3.602,6.68
			l-0.008,0.008c5.596,5.259,12.767,8.531,20.406,9.312h32c7.697-0.803,14.916-4.114,20.547-9.422
			c0.312-0.237,0.606-0.497,0.879-0.778c0.323,2.656,1.466,5.145,3.27,7.122c1.914,1.978,4.552,3.09,7.305,3.078h64
			c9.695,0,18.781-20.641,22.375-32.555c21.547-3.797,42.437-27.484,42.437-84.68C472.815,342.786,469.237,339.204,464.821,339.202z
			 M268.922,306.131c-1.406-1.098-3.138-1.695-4.922-1.695c-0.653-0.001-1.304,0.081-1.938,0.242L240,310.186v-21.75h21.18
			l14.836,7.195c1.088,0.531,2.282,0.806,3.492,0.805h32.984c1.21,0.001,2.405-0.274,3.492-0.805l14.836-7.195H352v21.75
			l-22.062-5.508c-4.285-1.071-8.627,1.534-9.699,5.819c-0.159,0.634-0.239,1.285-0.239,1.939v24
			c-2.407,11.529-12.528,19.818-24.305,19.906c-11.605-0.216-21.481-8.513-23.695-19.906v-24
			C272.001,309.972,270.865,307.646,268.922,306.131z M424,416.436c-4.267,0.235-7.694,3.605-8,7.867
			c-2.363,8.542-6.003,16.678-10.797,24.133h-56.187c0.008-1.172,0.047-2.414,0.078-3.367c0.047-1.359,0.086-2.695,0.086-3.938
			c-0.023-1.195,0.211-2.381,0.688-3.477h14.281c4.416,0.003,7.997-3.575,8-7.991c0-0.003,0-0.006,0-0.009
			c0-24.742,4.438-32.852,7.078-35.492c2.328-2.32,5.313-2.461,10.117-2.422h0.867v-16h-0.82
			c-7.835-0.778-15.633,1.799-21.461,7.094c-7.102,7.078-10.852,19.516-11.625,38.82h-7.875c-5.325,0.206-10.104,3.329-12.43,8.124
			v-53.343h-16v68.008c-2.268,2.012-5.028,3.39-8,3.992h-8v-48h-16v48h-8c-2.972-0.602-5.732-1.98-8-3.992v-80.148
			c6.833,5.15,15.139,7.971,23.695,8.046c16.571-0.39,31.413-10.349,38.057-25.534c37.518,0.474,81.443,30.573,81.443,56.065
			c-0.003,4.416,3.575,7.997,7.991,8c0.003,0,0.006,0,0.009,0c8.021-0.377,15.718-3.278,21.992-8.289
			C441.149,410.693,433.048,415.99,424,416.436z"/>
	</g>
</g>
<g>
	<g>
		<path d="M304,16.436c-13.249,0.014-23.986,10.751-24,24v64H135.052c22.126-21.608,22.545-57.061,0.937-79.187
			C114.381,3.123,78.928,2.704,56.802,24.312c-22.126,21.608-22.545,57.061-0.937,79.187c0.309,0.316,0.621,0.628,0.937,0.937
			h-6.349C22.602,104.467,0.031,127.038,0,154.889v133.547c-0.003,4.416,3.575,7.997,7.991,8c0.003,0,0.006,0,0.009,0h24v140
			c0,15.464,12.536,28,28,28s28-12.536,28-28V288.467l16.313,0.063l42.82,151.773c4.257,15.183,20.016,24.041,35.2,19.784
			c15.004-4.206,23.864-19.665,19.91-34.737L160,263.413V152.436h120v48c0,13.255,10.745,24,24,24s24-10.745,24-24v-160
			C327.986,27.187,317.249,16.45,304,16.436z M55.93,64.459c-0.013-22.091,17.885-40.01,39.977-40.023s40.01,17.885,40.023,39.977
			s-17.885,40.01-39.977,40.023c-0.01,0-0.021,0-0.031,0C73.854,104.404,55.97,86.527,55.93,64.459z M280,136.436H152
			c-4.416-0.003-7.997,3.575-8,7.991c0,0.003,0,0.006,0,0.009v120c0,0.68,0.086,1.358,0.258,2.016l42.5,162.938
			c1.751,6.707-2.268,13.563-8.975,15.314c-0.233,0.061-0.469,0.115-0.705,0.163c-6.424,1.26-12.743-2.611-14.539-8.906
			l-44.461-157.579c-0.973-3.435-4.102-5.812-7.672-5.828l-30.375-0.117H80c-4.418,0.001-7.999,3.582-8,8v156
			c0,6.627-5.373,12-12,12s-12-5.373-12-12v-292H32v136H16V154.889c0.02-19.02,15.433-34.433,34.453-34.453H280V136.436z
			 M312,200.436c0,4.418-3.582,8-8,8s-8-3.582-8-8v-160c0-4.418,3.582-8,8-8s8,3.582,8,8V200.436z"/>
	</g>
</g>
<g>
</g>
<g>
</g>
<g>
</g>
<g>
</g>
<g>
</g>
<g>
</g>
<g>
</g>
<g>
</g>
<g>
</g>
<g>
</g>
<g>
</g>
<g>
</g>
<g>
</g>
<g>
</g>
<g>
</g>
</svg>
