<?xml version="1.0" encoding="iso-8859-1"?>
<!-- Generator: Adobe Illustrator 16.0.0, SVG Export Plug-In . SVG Version: 6.00 Build 0)  -->
<!DOCTYPE svg PUBLIC "-//W3C//DTD SVG 1.1//EN" "http://www.w3.org/Graphics/SVG/1.1/DTD/svg11.dtd">
<svg version="1.1" id="Capa_1" xmlns="http://www.w3.org/2000/svg" xmlns:xlink="http://www.w3.org/1999/xlink" x="0px" y="0px"
	 width="467.332px" height="467.332px" viewBox="0 0 467.332 467.332" style="enable-background:new 0 0 467.332 467.332;"
	 xml:space="preserve">
<g>
	<path d="M467.332,287.18l-19.429,16.28L229.705,43.112L19.726,303.277L0,287.353L216.241,19.431
		c3.288-4.075,8.092-6.432,13.177-6.487c5.05-0.015,9.938,2.237,13.304,6.249L467.332,287.18z M226.513,66.857L62.688,269.844
		l32.375,184.544h57.8l-15.706-108.558c-4.258-29.396,16.374-53.232,46.087-53.232h98.351c29.706,0,49.77,23.745,44.818,53.029
		L308,454.377h47.977l47.647-184.539L233.415,66.796C231.485,64.491,228.405,64.521,226.513,66.857z M218.95,368.824
		c8.831-4.605,10.707-18.469,4.189-30.96c-6.515-12.492-18.956-18.886-27.789-14.279c-8.831,4.605-10.705,18.468-4.189,30.96
		C197.678,367.037,210.119,373.429,218.95,368.824z M195.015,370.834c-6.515-12.486-18.956-18.88-27.787-14.269
		c-8.831,4.605-10.707,18.463-4.192,30.955c6.515,12.486,18.956,18.875,27.789,14.264
		C199.656,397.179,201.532,383.322,195.015,370.834z M272.398,354.535c6.521-12.487,4.642-26.35-4.189-30.956
		c-8.83-4.61-21.271,1.782-27.786,14.274c-6.518,12.492-4.642,26.354,4.189,30.961C253.442,373.419,265.883,367.031,272.398,354.535
		z M296.356,356.585c-8.831-4.605-21.271,1.783-27.787,14.27c-6.52,12.486-4.641,26.35,4.189,30.955
		c8.831,4.611,21.271-1.782,27.787-14.269C307.06,375.054,305.186,361.197,296.356,356.585z M264.212,407.975
		c0.3-1.63,0.487-3.311,0.487-5.032c0-15.062-15.731-30.793-30.793-30.793c-15.061-0.01-30.785,15.722-30.785,30.782
		c0,1.682,0.17,3.326,0.47,4.937c-9.76,0.497-14.022,12.014-14.022,21.896c0,10.207,8.267,18.469,18.471,18.469
		c9.229,0,23.207-6.281,25.327-6.819c10.96,5.718,16.191,6.819,25.327,6.819c10.206,0,18.474-8.262,18.474-18.469
		C277.171,420.244,273.459,408.986,264.212,407.975z"/>
</g>
<g>
</g>
<g>
</g>
<g>
</g>
<g>
</g>
<g>
</g>
<g>
</g>
<g>
</g>
<g>
</g>
<g>
</g>
<g>
</g>
<g>
</g>
<g>
</g>
<g>
</g>
<g>
</g>
<g>
</g>
</svg>
