<svg id="Capa_1" enable-background="new 0 0 512 512" height="512" viewBox="0 0 512 512" width="512" xmlns="http://www.w3.org/2000/svg"><path d="m121 512h316c41.355 0 75-33.645 75-75v-30c0-8.284-6.716-15-15-15h-13.249c-16.438 0-30.707-11.258-36.342-28.651-.073-.108-15.409-46.861-64.145-58.659-44.011-10.654-86.622 11.532-104.143 49.829-21.709-14.342-39.124-26.106-53.63-35.905-58.469-39.497-69.004-46.614-104.491-46.614v-60c0-16.542 13.458-30 30-30s30 13.458 30 30c0 33.084 26.916 60 60 60s60-26.916 60-60v-30h45c8.284 0 15-6.716 15-15v-152c0-8.284-6.716-15-15-15h-120c-8.284 0-15 6.716-15 15v152c0 8.284 6.716 15 15 15h45v30c0 16.542-13.458 30-30 30s-30-13.458-30-30c0-33.084-26.916-60-60-60s-60 26.916-60 60v63.735c-52.256 13.269-91 60.363-91 116.265 0 66.168 54.28 120 121 120zm240-75v-104.965c5-.016 10.136.585 15.206 1.813 33.547 8.121 42.586 38.617 42.654 38.717 9.388 28.977 34.62 48.636 63.14 49.412v15.023c0 24.813-20.187 45-45 45h-91.035c9.435-12.543 15.035-28.131 15.035-45zm-30-407v30h-90v-30zm-90 60h90v62h-90zm90 250.031v96.969c0 19.556-12.539 36.239-30 42.43 0-10.203 0-87.429 0-87.43 0-22.348 12.112-41.649 30-51.969zm-210-38.031c26.304 0 30.94 3.132 87.698 41.474 16.447 11.11 36.623 24.739 62.558 41.79-.164 2.231-.256 4.476-.256 6.736v90h-30v-15c0-24.813-20.187-45-45-45h-16.507c-6.97-34.191-37.274-60-73.493-60-8.284 0-15 6.716-15 15s6.716 15 15 15c24.813 0 45 20.187 45 45 0 8.284 6.716 15 15 15h30c8.271 0 15 6.729 15 15v15c-14.125 0-80.161 0-90 0-50.178 0-91-40.374-91-90s40.822-90 91-90z"/></svg>